<svg xmlns="http://www.w3.org/2000/svg" width="45" height="44" fill="none"><path d="M43.858 43.752a.859.859 0 0 1-.892.198L7.27 31.223a4.698 4.698 0 0 1-4.255.338A4.706 4.706 0 0 1 .472 25.42 46.081 46.081 0 0 1 10.51 10.396 46.079 46.079 0 0 1 25.533.358 4.675 4.675 0 0 1 27.326 0c1.845 0 3.6 1.094 4.35 2.902a4.687 4.687 0 0 1-.027 3.65l12.418 36.31a.86.86 0 0 1-.209.89ZM12.676 31.325l3.783 1.349a2.186 2.186 0 0 0-.264-3.235 2.176 2.176 0 0 0-1.62-.434 2.176 2.176 0 0 0-1.452.838c-.328.428-.484.95-.447 1.482ZM30.087 3.56a2.985 2.985 0 0 0-3.896-1.614C15.188 6.504 6.618 15.074 2.06 26.077a2.962 2.962 0 0 0 0 2.282 2.962 2.962 0 0 0 1.614 1.614 2.963 2.963 0 0 0 2.282 0A2.962 2.962 0 0 0 7.57 28.36a38.432 38.432 0 0 1 8.373-12.531 38.434 38.434 0 0 1 12.53-8.373 2.985 2.985 0 0 0 1.614-3.896Zm7.635 26.06a2.176 2.176 0 0 0-1.685.855 2.176 2.176 0 0 0-.434 1.62 2.187 2.187 0 0 0 3.47 1.476l-1.35-3.95Zm1.922 5.621a3.913 3.913 0 0 1-5.745-2.922 3.884 3.884 0 0 1 .774-2.89 3.88 3.88 0 0 1 2.478-1.479l-1.708-4.994-1.964 1.507a.86.86 0 0 1-1.047-1.364l2.424-1.86-4.442-12.99a4.682 4.682 0 0 1-1.283.795c-9.107 3.772-16.2 10.866-19.973 19.973a4.7 4.7 0 0 1-.482.882l2.301.82c.08-.693.347-1.354.783-1.922a3.883 3.883 0 0 1 3.11-1.53c.854 0 1.681.279 2.37.808a3.884 3.884 0 0 1 1.497 2.591c.122.93-.095 1.85-.582 2.613l10.683 3.809.405-.978a.86.86 0 1 1 1.588.658l-.372.898 11.405 4.066-2.22-6.491Z"/><path d="M9.394 20.945a.859.859 0 1 1 0 0ZM8.087 23.08a40.676 40.676 0 0 0-2.237 4.567.86.86 0 0 1-1.588-.657 42.393 42.393 0 0 1 2.332-4.761.86.86 0 1 1 1.493.851ZM27.005 33.001a3.918 3.918 0 0 1-4.386-3.365 3.914 3.914 0 0 1 3.88-4.42 3.918 3.918 0 0 1 3.872 3.4A3.914 3.914 0 0 1 27.005 33Zm1.662-4.161a2.195 2.195 0 0 0-2.458-1.886 2.193 2.193 0 0 0-1.886 2.457 2.194 2.194 0 0 0 2.458 1.886 2.193 2.193 0 0 0 1.886-2.457ZM26.782 22.312a3.918 3.918 0 0 1-4.386-3.365 3.883 3.883 0 0 1 .774-2.891 3.883 3.883 0 0 1 3.105-1.53 3.918 3.918 0 0 1 3.872 3.4 3.914 3.914 0 0 1-3.365 4.386Zm1.661-4.162a2.195 2.195 0 0 0-2.458-1.886 2.177 2.177 0 0 0-1.451.838 2.176 2.176 0 0 0-.434 1.62 2.195 2.195 0 0 0 2.457 1.886 2.193 2.193 0 0 0 1.886-2.458ZM21.114 25.872l-2.642.348a.859.859 0 1 1-.224-1.704l2.641-.348a.86.86 0 0 1 .225 1.704ZM19.774 19.53l-.233 1.772a.86.86 0 1 1-1.704-.224l.233-1.772a.86.86 0 1 1 1.704.224Z"/></svg>